#!OML:ASF E:\pregnant2\Project 1\Capture day 1\Session 1\pregnant2.ASF
:FULLY-SPECIFIED
:DEGREES
982
root 4.02096 17.1602 44.6594 33.3259 18.1053 -0.726086
lowerback -24.6005 -3.37636 -1.44031
upperback -15.4367 -3.87189 3.05704
thorax -3.15217 -1.60479 3.29905
lowerneck -11.1044 -1.75069 -4.44694
upperneck 51.3327 -1.4289 1.02143
head 24.8098 -1.19727 1.23737
rclavicle 4.96962e-016 1.31198e-014
rhumerus 78.3747 -31.3131 -0.759308
rradius 31.7368
rwrist 54.7062
rhand -37.5877 -9.53378
rfingers 7.12502
rthumb -10.6416 -39.2443
lclavicle 4.96962e-016 1.31198e-014
lhumerus 65.4441 33.1521 -6.06728
lradius 36.6181
lwrist -47.5596
lhand -45.2617 19.1842
lfingers 7.12502
lthumb -18.0355 48.368
rfemur -39.222 13.2823 14.8781
rtibia 19.3949
rfoot -13.2706 -19.3922
rtoes -0.834297
lfemur -42.4834 -16.1692 -11.9948
ltibia 20.3866
lfoot -5.43282 17.4964
ltoes -18.1621
983
root 4.01946 17.1603 44.6593 33.3119 18.1002 -0.731678
lowerback -24.6027 -3.37917 -1.43765
upperback -15.4323 -3.87635 3.06348
thorax -3.14558 -1.60717 3.30329
lowerneck -11.0883 -1.75368 -4.45702
upperneck 51.3433 -1.41525 0.990763
head 24.8133 -1.19814 1.22426
rclavicle -6.99722e-014 -3.97569e-016
rhumerus 78.3965 -31.3363 -0.807902
rradius 31.7087
rwrist 54.7211
rhand -37.5581 -9.5224
rfingers 7.12502
rthumb -10.613 -39.2344
lclavicle -6.99722e-014 -3.97569e-016
lhumerus 65.4698 33.1682 -6.07726
lradius 36.5772
lwrist -47.5164
lhand -45.2404 18.1176
lfingers 7.12502
lthumb -18.015 47.3032
rfemur -39.2049 13.283 14.8926
rtibia 19.383
rfoot -13.2589 -19.3802
rtoes -0.84348
lfemur -42.4745 -16.164 -11.9907
ltibia 20.3973
lfoot -5.43539 17.5021
ltoes -18.1623
984
root 4.018 17.1604 44.6593 33.2995 18.0956 -0.735313
lowerback -24.6048 -3.38403 -1.43546
upperback -15.4327 -3.88323 3.07143
thorax -3.14413 -1.61052 3.3091
lowerneck -11.0665 -1.75485 -4.46962
upperneck 51.355 -1.39661 0.957698
head 24.8151 -1.19801 1.21134
rclavicle -6.01324e-015 1.39149e-014
rhumerus 78.4214 -31.3518 -0.855276
rradius 31.6805
rwrist 54.7325
rhand -37.5343 -9.52485
rfingers 7.12502
rthumb -10.59 -39.238
lclavicle -6.01324e-015 1.39149e-014
lhumerus 65.5698 33.1918 -5.97757
lradius 36.4969
lwrist -47.5684
lhand -45.3248 16.6455
lfingers 7.12502
lthumb -18.0962 45.8237
rfemur -39.1881 13.2815 14.9058
rtibia 19.3707
rfoot -13.2474 -19.3678
rtoes -0.855388
lfemur -42.4669 -16.1596 -11.988
ltibia 20.4082
lfoot -5.43951 17.5063
ltoes -18.1586
985
root 4.01661 17.1606 44.6592 33.2862 18.092 -0.739281
lowerback -24.6061 -3.38912 -1.43072
upperback -15.4374 -3.89076 3.07998
thorax -3.14808 -1.6142 3.3142
lowerneck -11.0356 -1.75491 -4.48529
upperneck 51.3645 -1.37499 0.923778
head 24.81 -1.19748 1.19912
rclavicle 1.63997e-015 3.18055e-014
rhumerus 78.4498 -31.358 -0.905926
rradius 31.6535
rwrist 54.7474
rhand -37.5265 -9.56886
rfingers 7.12502
rthumb -10.5825 -39.2824
lclavicle 1.63997e-015 3.18055e-014
lhumerus 65.7672 33.228 -5.73886
lradius 36.3705
lwrist -47.7381
lhand -45.4649 15.4588
lfingers 7.12502
lthumb -18.231 44.6244
rfemur -39.1693 13.2771 14.9209
rtibia 19.3574
rfoot -13.2394 -19.3529
rtoes -0.845671
lfemur -42.4583 -16.1543 -11.9865
ltibia 20.4195
lfoot -5.44432 17.509
ltoes -18.1603
986
root 4.01525 17.1608 44.659 33.2698 18.0905 -0.744869
lowerback -24.605 -3.39287 -1.42166
upperback -15.4448 -3.8973 3.0875
thorax -3.15667 -1.61763 3.31618
lowerneck -10.9954 -1.75371 -4.50184
upperneck 51.3712 -1.35171 0.89052
head 24.7968 -1.19633 1.18778
rclavicle -1.59525e-014 4.77083e-015
rhumerus 78.4717 -31.359 -0.94484
rradius 31.6239
rwrist 54.7546
rhand -37.5492 -9.68338
rfingers 7.12502
rthumb -10.6045 -39.3958
lclavicle -1.59525e-014 4.77083e-015
lhumerus 65.9768 33.2625 -5.48308
lradius 36.2395
lwrist -47.9146
lhand -45.6169 14.9281
lfingers 7.12502
lthumb -18.3772 44.08
rfemur -39.146 13.2693 14.9411
rtibia 19.342
rfoot -13.2287 -19.3358
rtoes -0.838531
lfemur -42.4469 -16.1506 -11.9828
ltibia 20.4311
lfoot -5.45145 17.5125
ltoes -18.1587
987
root 4.01399 17.1609 44.659 33.2522 18.0923 -0.751334
lowerback -24.6058 -3.39451 -1.40781
upperback -15.4537 -3.90185 3.09243
thorax -3.16674 -1.62044 3.31309
lowerneck -10.9484 -1.75259 -4.51947
upperneck 51.3751 -1.33048 0.861188
head 24.7776 -1.19561 1.1785
rclavicle 4.32357e-015 -4.37326e-015
rhumerus 78.4818 -31.3551 -0.964639
rradius 31.5909
rwrist 54.7512
rhand -37.5636 -9.7821
rfingers 7.12502
rthumb -10.6183 -39.4938
lclavicle 4.32357e-015 -4.37326e-015
lhumerus 66.2036 33.2924 -5.21202
lradius 36.1094
lwrist -48.0954
lhand -45.6756 14.4732
lfingers 7.12502
lthumb -18.4336 43.6198
rfemur -39.1189 13.2613 14.9633
rtibia 19.325
rfoot -13.2228 -19.3199
rtoes -0.820887
lfemur -42.4348 -16.1493 -11.9771
ltibia 20.443
lfoot -5.45741 17.516
ltoes -18.162
988
root 4.01268 17.1611 44.659 33.233 18.0949 -0.759807
lowerback -24.6044 -3.39376 -1.39122
upperback -15.4634 -3.90378 3.09555
thorax -3.17922 -1.62216 3.30718
lowerneck -10.9028 -1.75109 -4.53437
upperneck 51.3788 -1.30912 0.831418
head 24.7586 -1.19425 1.16847
rclavicle 1.18277e-014 1.19271e-015
rhumerus 78.4969 -31.3479 -0.994503
rradius 31.5517
rwrist 54.759
rhand -37.552 -9.80061
rfingers 7.12502
rthumb -10.6072 -39.5129
lclavicle 1.18277e-014 1.19271e-015
lhumerus 66.3994 33.3162 -4.99651
lradius 35.9988
lwrist -48.2223
lhand -45.5747 13.9654
lfingers 7.12502
lthumb -18.3365 43.1211
rfemur -39.0913 13.261 14.9839
rtibia 19.3071
rfoot -13.2174 -19.3117
rtoes -0.805642
lfemur -42.4227 -16.1515 -11.9665
ltibia 20.455
lfoot -5.46218 17.5238
ltoes -18.165
989
root 4.01128 17.1611 44.6589 33.2161 18.0949 -0.767432
lowerback -24.6047 -3.38918 -1.37501
upperback -15.4744 -3.90051 3.0943
thorax -3.19286 -1.62134 3.29787
lowerneck -10.8573 -1.75037 -4.54762
upperneck 51.382 -1.29029 0.803386
head 24.7394 -1.19319 1.15862
rclavicle 4.95471e-014 3.89618e-014
rhumerus 78.5114 -31.3391 -1.02708
rradius 31.5044
rwrist 54.7775
rhand -37.5369 -9.7932
rfingers 7.12502
rthumb -10.5926 -39.5063
lclavicle 4.95471e-014 3.89618e-014
lhumerus 66.5178 33.3195 -4.91157
lradius 35.9228
lwrist -48.2339
lhand -45.4765 13.9865
lfingers 7.12502
lthumb -18.2422 43.1511
rfemur -39.0672 13.2649 15.0005
rtibia 19.2891
rfoot -13.2112 -19.3064
rtoes -0.800488
lfemur -42.4136 -16.1534 -11.9555
ltibia 20.4669
lfoot -5.46324 17.5333
ltoes -18.1714
990
root 4.00983 17.1612 44.6589 33.1983 18.0938 -0.775059
lowerback -24.603 -3.38186 -1.35803
upperback -15.4856 -3.89383 3.09032
thorax -3.2083 -1.61895 3.28601
lowerneck -10.8137 -1.74988 -4.55839
upperneck 51.3861 -1.27235 0.77525
head 24.722 -1.1919 1.14806
rclavicle -1.05853e-014 -1.11319e-014
rhumerus 78.5136 -31.3303 -1.0428
rradius 31.4534
rwrist 54.7846
rhand -37.5134 -9.76374
rfingers 7.12502
rthumb -10.5699 -39.4779
lclavicle -1.05853e-014 -1.11319e-014
lhumerus 66.5845 33.3087 -4.90257
lradius 35.8739
lwrist -48.1901
lhand -45.3483 14.7733
lfingers 7.12502
lthumb -18.1188 43.9494
rfemur -39.0436 13.2735 15.0149
rtibia 19.2727
rfoot -13.2033 -19.3055
rtoes -0.805595
lfemur -42.403 -16.1574 -11.9436
ltibia 20.4777
lfoot -5.46319 17.5459
ltoes -18.1807
991
root 4.00843 17.1612 44.6589 33.1803 18.0924 -0.783004
lowerback -24.6017 -3.37306 -1.33942
upperback -15.4957 -3.88556 3.08516
thorax -3.22255 -1.61595 3.27224
lowerneck -10.7779 -1.74682 -4.5601
upperneck 51.3953 -1.25016 0.742625
head 24.7137 -1.18771 1.13413
rclavicle 4.75592e-014 2.98177e-014
rhumerus 78.5235 -31.3217 -1.07364
rradius 31.4002
rwrist 54.8071
rhand -37.5032 -9.74438
rfingers 7.12502
rthumb -10.5601 -39.4591
lclavicle 4.75592e-014 2.98177e-014
lhumerus 66.5682 33.2859 -5.01844
lradius 35.8504
lwrist -48.0567
lhand -45.3308 15.3741
lfingers 7.12502
lthumb -18.102 44.5517
rfemur -39.0207 13.2774 15.0324
rtibia 19.2587
rfoot -13.1946 -19.2998
rtoes -0.816885
lfemur -42.3912 -16.1598 -11.9323
ltibia 20.487
lfoot -5.46376 17.5571
ltoes -18.1847
